<?xml version="1.0" encoding="UTF-8" standalone="no"?>
<!-- Created with Inkscape (http://www.inkscape.org/) -->

<svg
   xmlns:osb="http://www.openswatchbook.org/uri/2009/osb"
   xmlns:dc="http://purl.org/dc/elements/1.1/"
   xmlns:cc="http://creativecommons.org/ns#"
   xmlns:rdf="http://www.w3.org/1999/02/22-rdf-syntax-ns#"
   xmlns:svg="http://www.w3.org/2000/svg"
   xmlns="http://www.w3.org/2000/svg"
   xmlns:sodipodi="http://sodipodi.sourceforge.net/DTD/sodipodi-0.dtd"
   xmlns:inkscape="http://www.inkscape.org/namespaces/inkscape"
   width="2000"
   height="330"
   viewBox="0 0 529.16665 87.312497"
   version="1.1"
   id="svg8"
   sodipodi:docname="drawing4.svg"
   inkscape:version="0.92.4 (5da689c313, 2019-01-14)">
  <defs
     id="defs2">
    <linearGradient
       id="linearGradient2584"
       osb:paint="solid">
      <stop
         style="stop-color:#ffff00;stop-opacity:1;"
         offset="0"
         id="stop2582" />
    </linearGradient>
    <linearGradient
       id="linearGradient8149"
       osb:paint="solid">
      <stop
         style="stop-color:#ffffff;stop-opacity:1;"
         offset="0"
         id="stop8147" />
    </linearGradient>
    <linearGradient
       id="linearGradient8139"
       osb:paint="solid">
      <stop
         style="stop-color:#1e798b;stop-opacity:1;"
         offset="0"
         id="stop8137" />
    </linearGradient>
    <linearGradient
       id="linearGradient7371"
       osb:paint="solid">
      <stop
         style="stop-color:#1d7a8c;stop-opacity:1;"
         offset="0"
         id="stop7369" />
    </linearGradient>
    <linearGradient
       id="linearGradient1613"
       osb:paint="solid">
      <stop
         style="stop-color:#635ae8;stop-opacity:1;"
         offset="0"
         id="stop1611" />
    </linearGradient>
    <linearGradient
       id="linearGradient1607"
       osb:paint="solid">
      <stop
         style="stop-color:#ffffff;stop-opacity:1;"
         offset="0"
         id="stop1605" />
    </linearGradient>
  </defs>
  <sodipodi:namedview
     id="base"
     pagecolor="#ffffff"
     bordercolor="#666666"
     borderopacity="1.0"
     inkscape:pageopacity="0.0"
     inkscape:pageshadow="2"
     inkscape:zoom="0.49497475"
     inkscape:cx="778.68284"
     inkscape:cy="422.79398"
     inkscape:document-units="mm"
     inkscape:current-layer="layer1"
     showgrid="false"
     units="px"
     inkscape:window-width="1920"
     inkscape:window-height="1017"
     inkscape:window-x="1912"
     inkscape:window-y="-8"
     inkscape:window-maximized="1" />
  <metadata
     id="metadata5">
    <rdf:RDF>
      <cc:Work
         rdf:about="">
        <dc:format>image/svg+xml</dc:format>
        <dc:type
           rdf:resource="http://purl.org/dc/dcmitype/StillImage" />
        <dc:title />
      </cc:Work>
    </rdf:RDF>
  </metadata>
  <g
     inkscape:label="Layer 1"
     inkscape:groupmode="layer"
     id="layer1"
     transform="translate(0,-209.68752)">
    <ellipse
       style="opacity:1;fill:#ffffff;fill-opacity:1;stroke:#ffffff;stroke-width:0.26499999;stroke-miterlimit:4;stroke-dasharray:none;stroke-opacity:1"
       id="path8145-6"
       cx="412.75"
       cy="344.62503"
       rx="41.694046"
       ry="36.348656" />
    <rect
       id="rect317"
       width="546.87732"
       height="120.80583"
       x="-11.759837"
       y="184.74681"
       style="fill:#7b00ee;fill-opacity:1;stroke-width:1.55060053"
       ry="0" />
    <path
       sodipodi:type="spiral"
       style="fill:none;fill-rule:evenodd;stroke:#000000;stroke-width:0.26458332"
       id="path2629"
       sodipodi:cx="-43.832203"
       sodipodi:cy="261.72043"
       sodipodi:expansion="1"
       sodipodi:revolution="3"
       sodipodi:radius="101.64678"
       sodipodi:argument="-18.461237"
       sodipodi:t0="0"
       d="m -43.832203,261.72043 c 4.716964,1.92967 -0.273971,7.3104 -3.207236,7.8399 -7.948968,1.43492 -13.023995,-7.38923 -12.472574,-14.25437 0.986364,-12.28013 14.04162,-19.14507 25.301519,-17.10525 16.524354,2.99352 25.394705,20.76515 21.737911,36.34866 -4.873931,20.77037 -27.511436,31.69596 -47.395801,26.37058 -25.022443,-6.70144 -38.023267,-34.26795 -31.003249,-58.44294 8.502183,-29.27915 41.030116,-44.36554 69.490083,-35.63592 33.539087,10.28756 50.717196,47.79578 40.268587,80.53723 -12.0633326,37.8013 -54.563766,57.0751 -91.584365,44.90125 -42.065162,-13.8327 -63.437402,-61.3334 -49.533922,-102.6315 15.59759,-46.33023 68.104247,-69.80288 113.6786447,-54.1666 50.5962193,17.35924 76.1707443,74.87601 58.7992623,124.72579" />
    <path
       style="fill:#7b00ee;fill-opacity:1;stroke-width:0.26458332"
       id="path2631"
       d="m 125.28499,239.63162 c 9.7553,-7.19912 0.71226,-0.48263 -28.323748,16.22793 -0.465773,0.26806 0.924711,-0.54834 1.375952,-0.8402 1.388687,-0.89818 2.685896,-1.92694 4.007756,-2.91825 3.22517,-2.42116 6.1047,-5.24786 9.02294,-8.01895 11.08775,-10.16192 24.68011,-17.32491 38.35721,-23.49118 1.38669,-0.50045 2.92955,-1.05031 4.43618,-1.01315 0.80031,0.0197 1.13188,0.21448 1.87285,0.48932 3.22762,2.5572 6.44945,5.11869 9.74101,7.59359 5.25717,3.84937 10.7562,7.35579 16.02761,11.18546 2.31741,1.65391 4.69795,3.29627 6.46983,5.56121 0.82743,1.05769 0.9369,1.3715 1.56262,2.52692 1.17852,2.25897 1.53073,4.73728 1.74135,7.23886 0.19033,1.85648 0.20434,3.72154 0.23282,5.58515 -0.0132,1.01655 0.0995,2.04908 0.0246,3.05857 -0.0161,-0.13193 -0.0633,-0.46005 -0.0237,-0.54708 0.22219,-0.48809 2.73486,-0.22485 3.15974,-0.21413 2.30243,0.0579 4.74173,-0.15976 6.86302,-1.14302 0.38238,-0.17725 0.73102,-0.41969 1.09653,-0.62954 9.52188,-8.16539 0.66279,-0.46923 -28.33429,16.15699 -0.38202,0.21903 0.73674,-0.48895 1.06168,-0.78614 1.09453,-1.00106 1.75271,-2.2369 2.39614,-3.54423 1.02707,-2.57499 1.2426,-5.35097 1.26023,-8.09541 0.0172,-2.73523 -1.37141,-4.85969 -3.02431,-6.90898 -2.59896,-2.99066 -6.02553,-5.06809 -9.51461,-6.86183 -3.66235,-1.71587 -7.52104,-2.94701 -11.46509,-3.8139 -2.98165,-0.76611 -6.0639,-1.00111 -9.1161,-1.33034 -3.87033,-0.73028 -7.79506,-0.99046 -11.70192,-1.42667 -3.66351,-0.25836 -7.36715,-0.68453 -11.03462,-0.31041 -0.42504,0.0474 -0.85008,0.0948 -1.27512,0.14219 0,0 28.54597,-20.94617 28.54597,-20.94617 v 0 c 0.41696,0.008 0.83392,0.0154 1.25088,0.023 3.6195,0.27873 7.24118,0.53097 10.85115,0.92044 3.99629,0.33449 7.96104,0.92118 11.9551,1.27627 3.20455,0.32509 6.39425,0.74202 9.45742,1.79424 3.9377,1.30297 7.80344,2.82224 11.50107,4.71198 3.85778,2.10817 7.66074,4.38202 10.54837,7.77187 2.32095,2.62709 4.1266,5.26134 4.5083,8.84255 0.12136,3.13857 -0.21266,6.28999 -0.85867,9.3623 -0.38548,1.40665 -0.46222,1.88517 -1.04225,3.22104 -5.45125,12.55495 -21.08287,17.56195 -33.82865,21.62225 -2.88943,0.61936 -5.82222,0.78847 -8.77505,0.67622 -2.66116,-0.0653 -4.51624,0.10087 -5.96617,-2.50493 -0.1064,-0.26539 -0.23826,-0.52195 -0.31918,-0.79619 -0.33397,-1.13172 0.0113,-2.3561 -0.0537,-3.51025 0.0452,-1.82942 0.0847,-3.65942 0.0993,-5.48927 -0.076,-2.05558 -0.20591,-4.13111 -1.02798,-6.04804 -1.2637,-3.05508 -3.63957,-5.26825 -6.17254,-7.32629 -5.00177,-4.09065 -10.37662,-7.6689 -15.86397,-11.07338 -2.22248,-1.39912 -4.43622,-2.81945 -6.72905,-4.10256 -0.62667,-0.35069 -1.95179,-1.10964 -2.74407,-1.26682 -0.22802,-0.0452 -0.46209,0.0513 -0.69313,0.077 -1.61372,0.45097 -3.17739,1.07396 -4.63482,1.90742 -11.15924,6.43385 9.049,-5.21567 27.4382,-15.9313 0.49103,-0.28613 -1.01148,0.51999 -1.50037,0.80976 -1.63032,0.96629 -3.09434,2.16508 -4.51763,3.40944 -3.03334,2.55631 -5.70316,5.50031 -8.69248,8.10829 -11.27648,9.48023 -24.23844,16.99427 -37.752427,22.87287 0,0 28.119887,-22.28456 28.119887,-22.28456 z"
       inkscape:connector-curvature="0" />
    <path
       style="fill:#7b00ee;fill-opacity:1;stroke-width:0.26458332"
       id="path2633"
       d="m 146.84188,233.57924 c 0.53579,1.60135 1.24713,3.13753 1.79653,4.73684 0.51733,1.29455 0.89995,2.63195 1.31689,3.95975 0.26307,0.94812 0.58478,1.87721 0.84499,2.82607 0,0 -31.64962,17.02715 -31.64962,17.02715 v 0 c -0.14955,-0.91164 -0.48463,-1.75607 -0.70012,-2.64932 -0.36023,-1.31708 -0.63626,-2.65618 -1.13869,-3.93089 -0.4649,-1.50506 -0.92317,-3.05007 -1.84596,-4.34792 0,0 31.37598,-17.62168 31.37598,-17.62168 z"
       inkscape:connector-curvature="0" />
    <path
       style="fill:#7b00ee;fill-opacity:1;stroke-width:0.26458332"
       id="path2635"
       d="m 156.19563,252.93396 c 1.06001,0.81205 2.25553,1.44801 3.51781,1.88207 0,0 -29.79693,19.73867 -29.79693,19.73867 v 0 c -1.35501,-0.77089 -2.69248,-1.57179 -4.04944,-2.3393 0,0 30.32856,-19.28144 30.32856,-19.28144 z"
       inkscape:connector-curvature="0" />
    <path
       style="fill:#7b00ee;fill-opacity:1;stroke-width:0.26458332"
       id="path2637"
       d="m 172.11647,250.15431 c -52.36728,32.54538 -34.45809,20.98179 -23.56518,12.75284 2.13957,-1.62478 4.18847,-3.3631 6.14948,-5.19848 2.20312,-1.99926 4.20065,-4.20274 6.17982,-6.41928 1.48687,-1.57546 2.92201,-3.18933 4.11669,-4.99838 0.99543,-1.07417 1.51798,-2.29308 1.7335,-3.72158 0.0534,-1.02791 0.21087,-2.08904 0.0734,-3.11477 -0.0279,-0.44692 -0.29751,-0.76052 -0.60281,-1.05985 0,0 30.6693,-18.58616 30.6693,-18.58616 v 0 c 0.70335,0.81506 1.34516,1.66003 1.68288,2.70035 0.0641,0.27966 0.25378,1.07918 0.27904,1.32401 0.0957,0.92776 -0.0949,1.88457 -0.0641,2.81332 -0.1106,1.85289 -0.14874,3.73429 -1.04729,5.41234 -1.40868,1.91146 -2.6027,3.97404 -4.32847,5.64007 -2.0672,2.10545 -3.94156,4.37357 -5.9426,6.53756 -2.02029,1.95741 -4.03809,3.9244 -6.27299,5.64118 -11.60541,9.17437 -21.97562,16.30272 -37.02046,22.89757 0,0 27.95974,-22.62074 27.95974,-22.62074 z"
       inkscape:connector-curvature="0" />
    <path
       style="fill:#7b00ee;fill-opacity:1;stroke-width:0.26458332"
       id="path2639"
       d="m 163.43016,235.60699 c 3.07136,-0.8062 5.94711,-2.17776 8.81876,-3.51012 1.64421,-0.77541 3.35568,-1.4239 4.97327,-2.25661 1.40493,-0.72323 2.75226,-1.49962 4.1886,-2.16772 1.40096,-0.79778 2.72386,-1.75165 4.17107,-2.469 0.51451,-0.25502 1.06289,-0.43641 1.5822,-0.68153 0.95244,-0.44956 2.04689,-1.0773 2.96666,-1.58817 3.06764,-1.37497 6.23459,-2.45923 9.52068,-3.15679 2.37589,-0.30024 4.7061,-0.86057 7.08276,-1.15022 1.36944,-0.16231 2.74689,-0.0884 4.1212,-0.0781 0.20888,8.2e-4 0.41777,0.002 0.62666,0.002 0,0 -29.02754,21.10755 -29.02754,21.10755 v 0 c -0.20099,0.002 -0.40199,0.005 -0.60298,0.007 -1.25314,0.0357 -2.50009,0.15446 -3.73908,0.34891 -2.13955,0.32182 -4.30031,0.57157 -6.38885,1.15338 -3.0899,0.95844 -6.10607,2.17946 -8.93904,3.74938 -1.00333,0.50883 -2.0238,0.9844 -3.01574,1.5151 -1.96231,1.04985 -3.81408,2.31071 -5.86263,3.19921 -2.94679,1.51056 -5.97107,2.83865 -9.00832,4.15759 -3.22013,1.3994 -6.51447,2.61848 -9.84549,3.72636 0,0 28.37781,-21.90908 28.37781,-21.90908 z"
       inkscape:connector-curvature="0" />
    <path
       style="fill:#7b00ee;fill-opacity:1;stroke-width:0.26458332"
       id="path2641"
       d="m 209.72362,225.82678 c -1.80154,1.49364 -3.2468,3.3634 -4.79927,5.10311 -1.32008,1.45701 -2.45319,3.06367 -3.62793,4.63502 -1.19941,1.89282 -1.70772,4.00066 -1.97559,6.19554 -0.30106,2.59135 0.49137,4.75066 1.85036,6.9191 2.13954,3.29245 5.22198,5.63611 8.50592,7.68695 4.99176,2.76915 10.56065,3.82781 16.16004,4.48829 5.46733,0.65731 10.97623,0.82523 16.47747,0.88678 3.28283,-0.1251 1.65946,-0.0215 4.87042,-0.3063 0,0 -27.84342,20.46257 -27.84342,20.46257 v 0 c -3.25785,0.0688 -1.61622,0.0651 -4.92491,0.008 -5.49195,-0.20902 -10.98017,-0.5355 -16.4145,-1.40551 -6.00996,-0.94471 -11.95323,-2.42563 -17.29235,-5.45148 -3.77187,-2.32341 -7.37364,-4.916 -9.88831,-8.64213 -1.75681,-2.65483 -3.20603,-5.58179 -3.19276,-8.83988 0.13399,-2.49612 0.24556,-5.03931 1.24507,-7.371 0.12777,-0.36591 0.21765,-0.74736 0.38332,-1.09775 0.14499,-0.30664 0.37173,-0.56784 0.54272,-0.86077 0.17856,-0.3059 0.31031,-0.63908 0.50536,-0.93474 0.58328,-0.88409 1.40033,-1.62174 1.92215,-2.55367 1.44008,-1.70994 3.06093,-3.28917 4.28796,-5.16705 0,0 33.20825,-13.75531 33.20825,-13.75531 z"
       inkscape:connector-curvature="0" />
    <path
       style="fill:#7b00ee;fill-opacity:1;stroke-width:0.26458332"
       id="path2643"
       d="m 240.97932,273.79672 c -0.25333,-0.22385 -0.4856,-0.47409 -0.76001,-0.67154 -0.31309,-0.2253 -0.66653,-0.3886 -0.9948,-0.59117 -1.61597,-0.99715 -3.22135,-1.96562 -4.90909,-2.83907 -2.18467,-1.12429 -4.31118,-2.35611 -6.47648,-3.51693 -1.38661,-0.66061 -2.69218,-1.5184 -4.12061,-2.09234 -0.50819,-0.20419 -1.93198,-0.61235 -2.41114,-0.7547 -1.5609,-0.48882 -3.13503,-0.90056 -4.7309,-1.2547 0,0 28.85653,-19.93301 28.85653,-19.93301 v 0 c 1.66636,0.43784 3.33352,0.87325 4.98997,1.34766 2.50859,0.81011 4.8446,1.98948 7.13704,3.28668 2.10803,1.17328 4.165,2.43256 6.26773,3.61472 2.43074,1.33883 4.79082,2.82315 7.32757,3.95783 0,0 -30.17581,19.44657 -30.17581,19.44657 z"
       inkscape:connector-curvature="0" />
    <path
       style="fill:#7b00ee;fill-opacity:1;stroke-width:0.26458332"
       id="path2645"
       d="m 233.90004,241.853 c 2.20279,2.92514 4.78558,5.55918 7.29123,8.22581 3.42091,3.57769 7.23881,6.71834 11.36518,9.44155 1.95519,1.38458 4.0527,2.58091 6.18345,3.67454 0,0 -29.90915,19.28147 -29.90915,19.28147 v 0 c -1.90775,-1.41882 -3.87271,-2.76138 -5.67169,-4.32158 -3.92566,-3.18737 -7.65552,-6.6066 -11.32768,-10.08111 -2.87451,-2.69781 -5.75419,-5.38521 -8.78027,-7.9134 0,0 30.84893,-18.30728 30.84893,-18.30728 z"
       inkscape:connector-curvature="0" />
    <path
       sodipodi:type="spiral"
       style="fill:none;fill-rule:evenodd;stroke:#000000;stroke-width:0.26458332"
       id="path2653"
       sodipodi:cx="584.25122"
       sodipodi:cy="316.77798"
       sodipodi:expansion="1"
       sodipodi:revolution="3.0554454"
       sodipodi:radius="196.98987"
       sodipodi:argument="-21.152962"
       sodipodi:t0="0"
       d="m 584.25122,316.77798 c -6.48582,-7.20945 6.51832,-12.29965 11.98258,-10.77986 14.80782,4.11852 16.20246,23.43791 9.57715,34.74503 -11.85111,20.22579 -39.90151,21.18647 -57.50748,8.37443 -25.83746,-18.80218 -26.33192,-56.59341 -7.17171,-80.26993 25.53755,-31.55706 73.36701,-31.54699 103.03237,-5.96899 37.33084,32.1873 36.79824,90.17969 4.76628,125.79482 -38.79499,43.13469 -107.01443,42.07046 -148.55727,3.56356 -48.95679,-45.37904 -47.35585,-123.86292 -2.36084,-171.31972 51.94852,-54.79074 140.7206,-52.65004 194.08216,-1.15813 60.63281,58.50839 57.95038,157.58472 -0.0446,216.84462 -65.06159,66.48065 -174.45354,63.25517 -239.60707,-1.2473 -72.33276,-71.60998 -68.5633,-191.32589 2.45002,-262.36952 16.05439,-16.06123 34.93708,-29.24038 55.51663,-38.83541" />
  </g>
</svg>
